<!-- Generated by IcoMoon.io -->
<svg version="1.1" xmlns="http://www.w3.org/2000/svg" width="28" height="28" viewBox="0 0 28 28">
<title>code</title>
<path d="M18.25 8.561l0.619-0.62c0.161-0.161 0.409-0.161 0.57 0l5.774 5.774c0.161 0.161 0.161 0.409 0 0.57l-5.774 5.774c-0.161 0.161-0.409 0.161-0.57 0l-0.619-0.619c-0.161-0.161-0.161-0.409 0-0.57l4.869-4.869-4.869-4.869c-0.161-0.161-0.161-0.409 0-0.57zM10.927 21.781l4.622-15.996c0.062-0.211 0.285-0.334 0.483-0.273l0.768 0.211c0.211 0.062 0.334 0.285 0.273 0.496l-4.622 15.996c-0.062 0.211-0.285 0.334-0.483 0.273l-0.768-0.211c-0.211-0.062-0.334-0.285-0.273-0.496zM2.787 13.715l5.774-5.774c0.161-0.161 0.409-0.161 0.57 0l0.62 0.62c0.161 0.161 0.161 0.409 0 0.57l-4.869 4.869 4.869 4.869c0.161 0.161 0.161 0.409 0 0.57l-0.62 0.62c-0.161 0.161-0.409 0.161-0.57 0l-5.774-5.774c-0.161-0.161-0.161-0.409 0-0.57z"></path>
</svg>
